<?xml version="1.0" encoding="utf-8"?>
<!-- Generator: Adobe Illustrator 19.0.0, SVG Export Plug-In . SVG Version: 6.00 Build 0)  -->
<svg version="1.1" id="Layer_1" xmlns="http://www.w3.org/2000/svg" xmlns:xlink="http://www.w3.org/1999/xlink" x="0px" y="0px"
	 viewBox="0 0 500 500" style="enable-background:new 0 0 500 500;" xml:space="preserve">
<style type="text/css">
	.st0{fill:#020303;}
	.st1{fill:#A9A09D;}
	.st2{fill:#282729;}
	.st3{fill:#595558;}
	.st4{fill:#E1DCD7;}
</style>
<g id="XMLID_1_">
	<path id="XMLID_5_" class="st0" d="M432.2,264.6l-1.1-3.9l-1.1-3.5c0,0-3.3-10.8-3.8-12.3c-0.5-1.8-1.1-3.5-1.6-5.2l-0.1-0.3
		l7.4-8.9l-3.5-10.9l-37.1,0l-1.1,1.8l-0.4-1.8l-37.4,0l-0.9,2.1l-0.4-2.1l-37.7,0l-0.7,2.5l-0.3-2.5l-38.1,0l-0.4,4l-0.1-4l-38.3,0
		l-0.1,3.7l-0.4-3.7l-37.9,0l-0.3,2.4l-0.7-2.4l-18.3,0l-1.5,10.2l-0.8-2.1l-0.4,0l-3.2-8.1l-18.1,0l-0.4,2l-1-2l-17.9,0l-0.4,1.8
		l-1.1-1.8l-17.7,0l-2.1,7.9l-4.8,0l-0.9,3.5L99.5,220l-17.3,0l-14.7,45.8l15.7,14.5h17.1l2.7-10.2l1.3,1.5h4.6l7.6,8.7l17.6,0
		l0.3-1.7l1.2,1.7l17.7,0l0.3-1.8l1.1,1.8l17.9,0l1.4-9.6l4.6,9.6l18.1,0l0.2-2.2l0.8,2.2l37.6,0l0.1-3.5l0.4,3.5l37.9,0l0.4-3.8
		l0.1,3.8l18.6,0l0.6-2.7l0.2,2.7l18.4,0l0.8-2.3l0.2,2.3h18.2l0.9-2l0.3,2h18l1.1-1.9l0.3,1.9l17.9,0l10.3-14.7l-0.5-2.4l5.7,0
		l8.1-11.2l7,28.3l17.5,0l14.6-14.6L432.2,264.6z M254.9,253.4l0.2-6.3l17.9,0l0.2-2.1l0.3,8.3L254.9,253.4z"/>
	<polygon id="XMLID_6_" class="st1" points="100.3,230.4 97.9,238.7 108.5,238.7 110.7,230.5 115.5,230.5 117.6,222.5 131.6,222.5 
		121.7,264.8 106.7,264.8 111.2,246.8 105.8,246.8 103.4,255.6 93.7,255.6 96.1,246.8 90.6,246.8 85.3,264.8 70.5,264.8 84.1,222.6 
		97.8,222.5 95.5,230.2 	"/>
	<polygon id="XMLID_7_" class="st1" points="150.8,222.6 142.5,264.9 127.4,264.9 136.8,222.6 	"/>
	<polygon id="XMLID_8_" class="st1" points="171.1,251.2 172.4,242.4 166.9,242.3 163.3,264.8 148.3,264.8 156.1,222.5 170.1,222.5 
		168.9,230.3 173.7,230.4 172.5,238.6 177.9,238.7 180.2,222.5 194.2,222.5 189.3,264.7 174.2,264.8 176.1,251.3 	"/>
	<polygon id="XMLID_9_" class="st1" points="231.3,256 230.9,264.7 195,264.7 199.5,222.4 232.8,222.4 232.5,229.9 212.9,229.9 
		212.3,238.5 232.1,238.6 231.7,246.8 211.5,246.8 210.9,255.9 	"/>
	<path id="XMLID_10_" class="st1" d="M426.6,222.2l2.4,7.5l-9.7,0l0.1,0.2c0.4,1.6,0.8,3.3,1.3,5c0.5,1.7,1,3.5,1.5,5.2
		c0.5,1.8,1,3.6,1.6,5.4c0.5,1.8,1.1,3.6,1.7,5.4c0.3,1.1,0.7,2.2,1,3.3c0.3,1.1,0.7,2.3,1,3.4c0.3,1.1,0.7,2.3,1,3.5
		c0.3,1.2,0.7,2.3,1,3.5l-15.2,0l-9.5-34.9l-9.7,0l-1.9-7.5L426.6,222.2z"/>
	<polygon id="XMLID_11_" class="st1" points="391.7,238.3 393.8,246.7 373.5,246.7 377.2,264.7 362.1,264.7 354.3,222.3 
		387.8,222.3 389.6,229.8 369.9,229.8 371.7,238.3 	"/>
	<path id="XMLID_14_" class="st1" d="M333.5,251l1.9,13.7l-15.1,0l-4.7-42.4l33.4,0l7.3,42.4l-15.1,0l-2-13.7L333.5,251z
		 M343.3,234.4l-0.9-5.4l-6.6,0l0.6,4.9l-5.2,0l-0.7-4.9l-6.4,0l0.7,5.4l5.9,0l0.3,2l-3,0l1.1,8.3l3.5,0l-0.3-2.8l5.3,0l0.4,2.8
		l3.6,0l-1.3-8.3l-2.9,0l-0.3-2L343.3,234.4"/>
	<path id="XMLID_17_" class="st1" d="M307.3,242.8l5,0l2.2,21.9l-15.1,0l-1.3-17.9l-5.6-0.1l1.2,18l-15.1,0l-1.6-42.3l33.4,0
		l1.6,15.7l-5,0L307.3,242.8z M297.4,238.6l-0.7-8.7l-5.4,0l0.6,8.7L297.4,238.6"/>
	<polygon id="XMLID_18_" class="st1" points="252.3,229.9 271.7,229.9 271.5,222.4 238.1,222.4 236.7,264.7 272.7,264.7 272.4,256 
		251.9,256 	"/>
	<path id="XMLID_19_" class="st2" d="M72.5,264.8c-1.1,0-1.3,0.6-0.5,1.4l10.7,10.3c0.8,0.7,2.3,1.4,3.4,1.4h9.4
		c1.1,0,1.4-0.6,0.6-1.4l-9.5-10.1c-0.7-0.8-2.2-1.4-3.3-1.4L72.5,264.8z"/>
	<path id="XMLID_20_" class="st2" d="M108.7,264.8c-1.1,0-1.4,0.7-0.7,1.5l8.4,10c0.7,0.8,2.2,1.5,3.2,1.5h9.9
		c1.1,0,1.4-0.7,0.8-1.6l-7.3-9.8c-0.6-0.9-2.1-1.6-3.2-1.6L108.7,264.8z"/>
	<path id="XMLID_21_" class="st2" d="M95.7,255.6c-1.1,0-1.4,0.7-0.7,1.5l9.3,10.5c0.7,0.8,2,1.4,2.9,1.4c0.9,0,1.1-0.8,0.5-1.7
		l-0.6-0.9c-0.6-0.9-0.9-2.5-0.6-3.5l0.2-0.7c0.3-1,0-2.6-0.7-3.4l-1.3-1.6c-0.7-0.9-2.1-1.5-3.2-1.5L95.7,255.6L95.7,255.6z"/>
	<path id="XMLID_22_" class="st2" d="M129.4,264.9c-1.1,0-1.4,0.7-0.8,1.6l7.1,9.7c0.6,0.9,2.1,1.6,3.1,1.6h9.7
		c1.1,0,1.5-0.8,0.9-1.7l-6-9.6c-0.6-0.9-1.9-1.7-3-1.7L129.4,264.9z"/>
	<path id="XMLID_23_" class="st2" d="M150.2,264.8c-1.1,0-1.5,0.8-0.9,1.7l5.8,9.5c0.6,0.9,1.9,1.7,3,1.7h9.6c1.1,0,1.6-0.8,1.1-1.8
		l-4.6-9.3c-0.5-1-1.8-1.8-2.8-1.8L150.2,264.8z"/>
	<path id="XMLID_24_" class="st2" d="M176.2,264.8c-1.1,0-1.6,0.8-1.1,1.8l4.4,9.4c0.5,1,1.7,1.8,2.8,1.8h9.9c1.1,0,1.7-0.8,1.3-1.9
		l-3.4-9.3c-0.4-1-1.6-1.9-2.7-1.9L176.2,264.8z"/>
	<path id="XMLID_25_" class="st2" d="M197,264.7c-1.1,0-1.7,0.8-1.3,1.9l3.2,9c0.4,1,1.6,1.9,2.6,1.9h29.2c1.1,0,1.8-0.9,1.7-2
		l-1.2-8.8c-0.2-1.1-1.2-2-2.2-2L197,264.7z"/>
	<path id="XMLID_26_" class="st2" d="M238.7,264.7c-1.1,0-1.9,0.9-1.8,2l1,9.1c0.1,1.1,1.1,2,2.2,2h29.1c1.1,0,2.1-0.9,2.2-2
		l1.1-9.1c0.1-1.1-0.7-2-1.7-2L238.7,264.7z"/>
	<path id="XMLID_27_" class="st2" d="M280.4,264.7c-1.1,0-2.1,0.9-2.2,2l-1.1,9c-0.1,1.1,0.6,2,1.7,2h9.7c1.1,0,2.2-0.9,2.4-1.9
		l2.2-9.1c0.2-1.1-0.4-1.9-1.5-1.9L280.4,264.7z"/>
	<path id="XMLID_28_" class="st2" d="M301.3,264.7c-1.1,0-2.2,0.9-2.4,1.9l-2.1,8.9c-0.3,1.1,0.4,1.9,1.5,1.9h9.7
		c1.1,0,2.3-0.8,2.6-1.9l3.2-9c0.4-1-0.2-1.9-1.3-1.9L301.3,264.7z"/>
	<path id="XMLID_29_" class="st2" d="M322.2,264.7c-1.1,0-2.3,0.8-2.6,1.9l-3.2,9.2c-0.4,1,0.2,1.9,1.3,1.9h9.7
		c1.1,0,2.4-0.8,2.8-1.8l4.4-9.3c0.5-1-0.1-1.8-1.1-1.8L322.2,264.7z"/>
	<path id="XMLID_30_" class="st2" d="M343.1,264.7c-1.1,0-2.4,0.8-2.8,1.8l-4.6,9.4c-0.5,1,0,1.8,1.1,1.8h10c1.1,0,2.4-0.8,3-1.7
		l5.5-9.5c0.5-0.9,0.1-1.7-1-1.7H343.1z"/>
	<path id="XMLID_31_" class="st2" d="M364.1,264.7c-1.1,0-2.4,0.8-3,1.7l-5.8,9.6c-0.6,0.9-0.1,1.7,0.9,1.7h9.9
		c1.1,0,2.5-0.7,3.1-1.6l6.9-9.7c0.6-0.9,0.3-1.6-0.8-1.6L364.1,264.7z"/>
	<path id="XMLID_32_" class="st2" d="M416.3,264.7c-1.1,0-2.6,0.7-3.3,1.5l-8.7,9.8c-0.7,0.8-0.4,1.5,0.7,1.5h9.4
		c1.1,0,2.6-0.6,3.4-1.4l10.3-10c0.8-0.8,0.5-1.4-0.6-1.4L416.3,264.7z"/>
	<path id="XMLID_33_" class="st0" d="M81.6,229.6c-0.1,0.3,0.7,0.5,1.8,0.5l10.3,0c1.1,0,2-0.2,2-0.5c0-0.3-0.9-0.5-1.9-0.5h-10
		C82.7,229.1,81.7,229.3,81.6,229.6"/>
	<path id="XMLID_34_" class="st0" d="M80.9,251.1c0.3-1-0.3-1.9-1.4-1.9H77c-1.1,0-2,0.2-2,0.5c0,0.3,0.9,0.5,2,0.5h1.3
		c1.1,0,1.7,0.8,1.4,1.9l-2.3,7c-0.3,1,0.3,1.9,1.4,1.9h7.7c1.1,0,2-0.2,2-0.5c0-0.3-0.9-0.5-2-0.5h-6.5c-1.1,0-1.7-0.8-1.4-1.9
		l0.2-0.6c0.3-1,1.5-1.9,2.6-1.9h6c1.1,0,2-0.2,2-0.5c0-0.3-0.9-0.5-2-0.5h-5.7c-1.1,0-1.7-0.8-1.4-1.9L80.9,251.1z"/>
	<path id="XMLID_35_" class="st0" d="M122.1,231.4c0.1-1.1-0.6-2-1.7-2l-3,0c-1.1,0-2,0.2-2.1,0.5c-0.1,0.2,0.7,0.5,1.8,0.5h2.3
		c1.1,0,1.9,0.9,1.7,2l-0.4,3.1c-0.1,1.1-1.2,2-2.2,2h-9.5c-1.1,0-2,0.2-2,0.5c0,0.3,0.9,0.5,2,0.5h9.3h2.2h2.2h4.8
		c1.1,0,2-0.2,2-0.5c0-0.3-0.9-0.5-2-0.5h-4.3c-1.1,0-1.9-0.9-1.7-2L122.1,231.4z"/>
	<path id="XMLID_36_" class="st0" d="M135.1,259.6c0.2-1.1,0.1-1.5-0.3-0.9c-0.3,0.6-0.8,1.9-1,2.9l-0.3,1.6
		c-0.2,1.1,0.1,2.7,0.7,3.6l0.5,0.7c0.6,0.9,1.6,2,2.2,2.4c0.6,0.4,0.6,0,0-0.9l-1.7-2.5c-0.6-0.9-0.9-2.5-0.7-3.6L135.1,259.6z"/>
	<path id="XMLID_37_" class="st0" d="M150,231.1c0-0.3-0.9-0.4-2-0.4l-3.9,0.1c-1.1,0-1.5,0.2-1,0.4c0.5,0.2,1.9,0.4,3,0.4h1.9
		C149.1,231.5,150,231.3,150,231.1"/>
	<path id="XMLID_38_" class="st0" d="M155.7,261.8c0.2-1.1,0.1-1.5-0.3-0.9c-0.4,0.6-0.8,1.7-1,2.4c-0.2,0.8,0,2.1,0.3,3.1
		c0.4,0.9,1,2.1,1.4,2.6c0.4,0.5,0.4,0.1,0.1-1l-0.5-1.5c-0.3-1-0.4-2.7-0.2-3.8L155.7,261.8z"/>
	<path id="XMLID_39_" class="st0" d="M152,251.1c-1.1-0.1-2,0.1-2,0.4c0,0.3,0.9,0.5,1.9,0.6l11,0.6c1.1,0.1,2.3,0.5,2.6,1.1
		c0.3,0.5,0.8,0.9,1,0.7c0.2-0.1,0-0.8-0.4-1.4c-0.4-0.6-1.6-1.2-2.7-1.3L152,251.1z"/>
	<path id="XMLID_40_" class="st0" d="M163.6,229.6c0.4,0.3,1.7,0.5,2.7,0.5h0.8c1.1,0,2-0.2,2-0.5c0-0.3-0.9-0.5-2-0.5l-2.4-0.1
		C163.8,229.1,163.2,229.3,163.6,229.6"/>
	<path id="XMLID_41_" class="st0" d="M176.8,251.4c-1.1,0-2,0.3-2,0.5c0,0.3,0.9,0.4,2,0.4l6.4-0.3c1.1,0,1.8,0.8,1.7,1.9l-1.3,8.9
		c-0.2,1.1,0,2.8,0.3,3.8l0.3,0.9c0.3,1,0.9,2.4,1.4,3.1c0.5,0.6,0.6,0.3,0.3-0.7l-1-3.3c-0.3-1-0.4-2.8-0.3-3.8l1.5-9.8
		c0.2-1.1-0.6-1.9-1.7-1.9L176.8,251.4z"/>
	<path id="XMLID_42_" class="st0" d="M179,229.4c0,0.2,0.8,0.6,1.9,0.8l10.9,1.3c1.1,0.1,2,0,2-0.2c0-0.3-0.9-0.6-2-0.7l-10.8-1.3
		C179.9,229.1,179,229.1,179,229.4"/>
	<path id="XMLID_43_" class="st0" d="M202.7,257.2c0-1.1-0.8-2-1.9-2h-3.9c-1.1,0-2,0.2-2,0.5c0,0.3,0.9,0.5,2,0.5h2.9
		c1.1,0,1.9,0.9,1.9,2l-0.2,4.6c0,1.1,0.2,2.8,0.4,3.9l0.7,2.8c0.3,1.1,0.8,2.4,1.1,3.1c0.3,0.6,0.4,0.3,0.2-0.8l-1.2-5.2
		c-0.2-1.1-0.4-2.8-0.4-3.9L202.7,257.2z"/>
	<path id="XMLID_44_" class="st0" d="M197.3,234.8c0,0.3,0.9,0.5,2,0.5h3.7c1.1,0,2.4-0.2,3-0.5c0.5-0.3,0.1-0.5-1-0.5l-5.7,0.1
		C198.2,234.3,197.3,234.5,197.3,234.8"/>
	<path id="XMLID_45_" class="st0" d="M222.7,239.5c0-1.1-0.3-2-0.5-2c-0.2,0-0.5,0.9-0.5,2v4.5c0,1.1,0.2,1.5,0.5,0.8
		c0.3-0.6,0.5-2,0.5-3.1L222.7,239.5z"/>
	<path id="XMLID_46_" class="st0" d="M227.1,256.3c0,1.1-1,2-2,2h-3c-1.1,0-2,0.9-2,2v3c0,1.1,0.2,2,0.5,2c0.3,0,0.5-0.9,0.5-2v-2
		c0-1.1,0.9-2,2-2h3c1.1,0,2-0.9,2-2l0-1c0-1.1-0.1-2-0.4-2C227.4,254.3,227.2,255.1,227.1,256.3L227.1,256.3z"/>
	<path id="XMLID_47_" class="st0" d="M264.9,258.3c-0.2,0.4-0.3,1.6-0.2,2.7l0.2,1.9c0.1,1.1,0.1,2.8-0.1,3.9l-1.3,9.4
		c-0.1,1.1,0,1.9,0.3,1.9c0.3,0,0.7-0.9,0.8-2l1.2-9.3c0.1-1.1,0.1-2.8,0-3.9l-0.4-3.3C265.4,258.5,265.1,257.9,264.9,258.3"/>
	<path id="XMLID_48_" class="st0" d="M237.2,272.9c0,0.3,0.9,0.5,2,0.5h0.5c1.1,0,2-0.2,2-0.5c0-0.3-0.9-0.5-2-0.5h-0.5
		C238.1,272.4,237.2,272.6,237.2,272.9"/>
	<path id="XMLID_49_" class="st0" d="M240.7,236c0.5,0.3,1.8,0.7,2.8,0.9l7.6,1.4c1,0.4,1.9,0.6,2,0.4c0.1-0.2-0.7-0.7-1.7-1
		l-9.7-1.7C240.7,235.7,240.2,235.7,240.7,236"/>
	<path id="XMLID_50_" class="st0" d="M240.6,244.5c0.4-0.3-0.1-0.5-1.2-0.5l-0.4,0c-1.1,0-2,0.3-2,0.5c0,0.3,0.6,0.5,1.4,0.5
		C239.2,245.1,240.1,244.8,240.6,244.5"/>
	<path id="XMLID_51_" class="st0" d="M283.5,236.5c0.1,0.6,1,1.1,2.1,1.1h0.9c1.1,0,2.1,0,2.3,0.1c0.2,0.1,0.8,0.5,1,0.4
		c0.2-0.1,0.1-0.5-0.4-0.8c-0.4-0.3-1.7-0.6-2.8-0.6h-0.2c-1.1,0-2.1-0.9-2.2-2l-1.2-10.9c-0.1-1.1-0.4-1.9-0.7-1.9
		c-0.2,0-0.4,0.9-0.2,2l1,8.6c0.1,1.1-0.7,2-1.8,2h-3.1c-1.1,0-2,0.2-2,0.5c0,0.3,0.9,0.5,2,0.5h3.2
		C282.5,235.4,283.4,235.9,283.5,236.5"/>
	<path id="XMLID_52_" class="st0" d="M282.2,258.1c0.1,1.1-0.3,2.7-0.8,3.7l-0.8,0.9c-0.3,1.1-0.3,2,0,2c0.2,0.1,0.7-0.7,1.1-1.8
		c0,0,0.1-0.5,0.5-1c0.4-0.6,0.8-1,1-1c0.1,0,0.2-0.9,0.1-2l-0.3-5c-0.1-1.1,0.8-2,1.8-2h7.4c1.1,0,2-0.2,2-0.5c0-0.3-0.9-0.5-2-0.5
		h-8.4c-1.1,0-1.9,0.9-1.8,2L282.2,258.1z"/>
	<path id="XMLID_53_" class="st0" d="M297.7,254.3c0,0.3,0.9,0.5,2,0.5h5c1.1,0,2.4-0.2,2.8-0.5c0.5-0.3,0-0.5-1.1-0.5l-6.7,0
		C298.6,253.8,297.7,254,297.7,254.3"/>
	<path id="XMLID_54_" class="st0" d="M302,241.3c0.3,0.2,1.4,0.4,2.5,0.4h1.4c1.1,0,2-0.2,2-0.5c0-0.3-0.9-0.5-2-0.4l-2.4,0
		C302.3,240.8,301.7,241,302,241.3"/>
	<path id="XMLID_55_" class="st0" d="M276.7,273.6c0,0.3,0.9,0.5,1.9,0.6l11,0.8c1.1,0.1,2-0.1,2-0.3c0-0.3-0.9-0.5-1.9-0.6l-11-0.8
		C277.6,273.2,276.7,273.4,276.7,273.6"/>
	<path id="XMLID_56_" class="st0" d="M340.7,253.9c-1.1,0-2,0.2-2,0.5c0,0.3,0.9,0.5,2,0.4l13.4,1.5c1.1,0.1,2,0,2.1-0.2
		c0.1-0.2-0.7-0.5-1.8-0.6L340.7,253.9z"/>
	<path id="XMLID_57_" class="st0" d="M382.5,236.9c-0.2,0.1-0.4,1-0.3,2.1l1.2,6.2c-0.5,1-0.7,1.9-0.4,2c0.2,0.1,0.8-0.6,1.3-1.6
		l-1.2-6.9C382.9,237.6,382.7,236.8,382.5,236.9"/>
	<path id="XMLID_58_" class="st0" d="M375.4,225.4c-1,0-2-0.8-2.3-1.8c-0.3-1-0.8-1.8-1-1.7c-0.2,0.1-0.2,1,0.1,2l0.2,0.5
		c0.3,1,1.4,1.9,2.4,1.9c1,0,2.1,0.8,2.4,1.9l0.5,1.3c0.4,1,0.8,1.8,1.1,1.7c0.2-0.1,0.1-1-0.2-2l-0.7-2
		C377.4,226.2,376.3,225.4,375.4,225.4"/>
	<path id="XMLID_59_" class="st0" d="M411.8,252.1c-1.1,0-2,0.2-2,0.5c0,0.3,0.9,0.5,2,0.5h12.6c1.1,0,2-0.2,2-0.5
		c0-0.3-0.9-0.5-2-0.5H411.8z"/>
	<path id="XMLID_60_" class="st0" d="M421.3,230.5c0.2-0.1,0.2-1-0.1-2l-1.3-4.6c-0.3-1-0.7-1.8-1-1.8c-0.2,0.1-0.2,1,0.1,2l1.3,4.6
		C420.6,229.7,421.1,230.5,421.3,230.5"/>
	<path id="XMLID_61_" class="st0" d="M114.9,230.2h4.1c1.1,0,1.1-0.2,0-0.4l-1.4-0.3c-1.1-0.2-1.9,0-1.8,0.4L114.9,230.2z"/>
	<path id="XMLID_62_" class="st0" d="M91.8,271.1c-0.4-0.5-1.6-0.7-2.7-0.6l-2.4,0.3c-1.1,0.1-1.1,0.3,0,0.5l3.9,0.5
		C91.7,271.8,92.2,271.5,91.8,271.1"/>
	<path id="XMLID_63_" class="st0" d="M130.9,276.2c-0.3-0.5-1.4-0.8-2.5-0.7l-5.1,0.4c-1.1,0.1-1.1,0.2,0,0.3l6.2,0.6
		C130.5,276.9,131.1,276.6,130.9,276.2"/>
	<path id="XMLID_64_" class="st0" d="M178.2,274.2c-0.1-0.4,0.7-0.7,1.7-0.7l1.3,0c1.1,0,1.1,0.3,0.1,0.6l-1,0.3
		C179.2,274.8,178.3,274.7,178.2,274.2"/>
	<path id="XMLID_65_" class="st0" d="M232.3,271.2c-0.1-0.6-1-1-2.1-0.9l-3.6,0.5c-1.1,0.2-1.1,0.4,0,0.6l3.9,0.6
		C231.6,272.3,232.4,271.9,232.3,271.2"/>
	<path id="XMLID_66_" class="st0" d="M236.8,273.4c-0.1-0.6,0.8-1,1.9-0.9l0.1,0c1.1,0.1,1.2,0.6,0.2,1.1l-0.3,0.1
		C237.7,274.2,236.9,274.1,236.8,273.4"/>
	<path id="XMLID_67_" class="st0" d="M202.6,262.9c-0.1-0.9-0.4-1-0.5-0.2c-0.2,0.8-0.1,2.4,0.3,3.4l0.2,0.8c0.3,1,0.5,1,0.4-0.1
		l0-0.4C202.9,265.4,202.7,263.8,202.6,262.9"/>
	<path id="XMLID_68_" class="st0" d="M220.5,263.6c-0.2-0.4-0.4,0.2-0.3,1.3l0,0.5c0,1.1,0.2,1.3,0.4,0.4
		C220.8,264.9,220.7,263.9,220.5,263.6"/>
	<path id="XMLID_69_" class="st0" d="M184.1,263.2c0-0.9-0.2-0.9-0.4,0c-0.2,0.9,0,2.5,0.3,3.6l0.3,0.9c0.3,1,0.5,1,0.3-0.1
		l-0.1-0.7C184.4,265.7,184.2,264.1,184.1,263.2"/>
	<path id="XMLID_70_" class="st0" d="M154.9,263.9c-0.2-0.4-0.4-0.3-0.6,0.2c-0.2,0.5,0,1.3,0.4,1.9c0.4,0.6,0.7,0.5,0.6-0.2
		C155.2,265.1,155.1,264.2,154.9,263.9"/>
	<path id="XMLID_71_" class="st0" d="M134.5,263.2c-0.2-0.9-0.6-0.8-0.8,0.2v0c-0.3,1.1,0.2,2.5,0.9,3.3c0.8,0.8,1.1,0.7,0.8-0.2
		C135.1,265.6,134.7,264.1,134.5,263.2"/>
	<path id="XMLID_72_" class="st0" d="M97.7,261.9c-0.3-0.4,0.3-0.6,1.4-0.5l3.1,0.3c1.1,0.1,1.1,0.3,0,0.4l-2.1,0.3
		C99.1,262.5,98,262.3,97.7,261.9"/>
	<path id="XMLID_73_" class="st0" d="M265.2,262.5c0.2-1.1,0.5-1.1,0.7,0l0.1,0.4c0.2,1.1,0.2,2.8-0.1,3.8l-0.4,1.4
		c-0.3,1-0.5,1-0.6-0.1l0-1.3c0-1.1,0.1-2.9,0.2-3.9L265.2,262.5z"/>
	<path id="XMLID_74_" class="st0" d="M252.9,238.8c0,0.5-0.7,0.3-1.6-0.3l-0.6-0.4c-0.9-0.6-0.8-0.9,0.3-0.6l0,0
		C252,237.8,252.9,238.4,252.9,238.8"/>
	<path id="XMLID_75_" class="st0" d="M312.8,270.1c0.1-0.4-0.7-0.7-1.7-0.7l-1.4,0c-1.1,0-1.1,0.3-0.1,0.6l1.1,0.3
		C311.7,270.6,312.7,270.5,312.8,270.1"/>
	<path id="XMLID_76_" class="st0" d="M305.1,263.6c-0.3-0.6-0.5-0.3-0.5,0.8l0,0.2c0,1.1,0.3,1.6,0.5,1
		C305.5,265.1,305.4,264.2,305.1,263.6"/>
	<path id="XMLID_77_" class="st0" d="M332.4,272c0.2-0.5-0.6-0.8-1.7-0.7l-3.7,0.3c-1.1,0.1-1.1,0.3,0,0.5l3.2,0.5
		C331.2,272.7,332.2,272.5,332.4,272"/>
	<path id="XMLID_78_" class="st0" d="M328.6,263.8c-0.2-0.5-0.4-0.5-0.5-0.1c-0.1,0.5-0.1,1.5,0.1,2.3c0.2,0.8,0.4,0.8,0.5,0.1
		C328.8,265.3,328.7,264.3,328.6,263.8"/>
	<path id="XMLID_79_" class="st0" d="M383,247.4c-0.4-0.1-0.3-1,0.1-2c0.4-1,0.7-0.9,0.7,0.2l0,0.1
		C383.7,246.8,383.4,247.6,383,247.4"/>
	<path id="XMLID_80_" class="st0" d="M357.2,270.9c0.4-0.5,1.6-0.7,2.6-0.6l5.3,0.8c1.1,0.2,1.1,0.3,0,0.3l-6.7,0.2
		C357.4,271.8,356.8,271.4,357.2,270.9"/>
	<path id="XMLID_81_" class="st0" d="M407.6,270.9c0.5-0.6,1.7-1,2.8-0.8l4.9,0.9c1.1,0.2,1,0.4,0,0.5l-6.5,0.4
		C407.6,272,407.1,271.6,407.6,270.9"/>
	<path id="XMLID_82_" class="st0" d="M409.6,252.5c-0.2-0.7,0.5-1.2,1.6-1l4.4,0.6c1.1,0.2,1.1,0.5,0,0.6l-3.6,0.7
		C410.8,253.6,409.8,253.2,409.6,252.5"/>
	<path id="XMLID_83_" class="st0" d="M404.4,231.2c-0.3-0.3-0.6-1.4-0.7-2.5l0-0.2c0-1.1,0.2-1.1,0.4-0.1l0.4,1.4
		C404.8,230.8,404.8,231.5,404.4,231.2"/>
	<path id="XMLID_84_" class="st0" d="M355.6,256.9l-2.8-1.1c-1-0.4-1-0.6,0.1-0.5l2.9,0.3"/>
	<path id="XMLID_85_" class="st0" d="M250.2,265.8c0.2-0.6,0.2-1.5,0-2.1c-0.2-0.5-1.3-1-2.4-1h-1.1c-1.1,0-2.3,0.5-2.7,1.2
		c-0.4,0.6,0.2,1.4,1.2,1.7l2.7,0.8C248.9,266.6,250,266.4,250.2,265.8"/>
	<path id="XMLID_86_" class="st0" d="M248.3,264.2c-0.7-0.8-0.7-1.4,0.1-1.4c0.8,0,1.7,0.4,2.1,0.8c0.4,0.5,0.2,1.6-0.4,2.5
		l-0.2,0.3c-0.6,0.9-0.9,1.1-0.7,0.4C249.5,266.2,249,265,248.3,264.2"/>
	<path id="XMLID_87_" class="st0" d="M178.8,229.7c0.1-0.6,1-0.9,2.1-0.6l0.5,0.1c1.1,0.3,1,0.7,0,0.9l-0.8,0.2
		C179.6,230.6,178.8,230.3,178.8,229.7"/>
	<path id="XMLID_88_" class="st0" d="M129.2,238.1c-0.2,0.4-1.2,0.5-2.3,0.2l-0.6-0.1c-1.1-0.3-1-0.5,0.1-0.6l1.3-0.1
		C128.7,237.4,129.4,237.7,129.2,238.1"/>
	<path id="XMLID_89_" class="st0" d="M89.2,255c0.2-0.5-0.6-0.8-1.6-0.5l-1.7,0.3c-1.1,0.2-1.1,0.5,0,0.7l1,0.2
		C88,255.8,89,255.5,89.2,255"/>
	<path id="XMLID_90_" class="st2" d="M92.2,271.2c-0.3-0.4-0.4-1.5-0.1-2.6l0.4-1.4c0.3-1,0.5-1,0.5,0.1l-0.1,2.7
		C92.9,271,92.6,271.6,92.2,271.2"/>
	<path id="XMLID_91_" class="st2" d="M130.6,276.3c-0.3-0.2-0.3-1.1,0-2.1c0.3-0.9,0.6-0.8,0.6,0.3v0.2
		C131.2,275.8,131,276.5,130.6,276.3"/>
	<path id="XMLID_92_" class="st2" d="M165.3,253.2c0-0.7,0.2-0.4,0.6,0.6l0.2,0.6c0.4,1,0.4,1.4,0,0.9
		C165.7,254.8,165.3,253.9,165.3,253.2"/>
	<path id="XMLID_93_" class="st2" d="M357.7,271.5c0.4-0.3,0.4-1.4,0.1-2.4l-0.5-1.6c-0.3-1-0.5-1-0.5,0.1l0.1,2.5
		C357,271.2,357.3,271.8,357.7,271.5"/>
	<path id="XMLID_94_" class="st2" d="M408.3,271.2c0.5-0.3,0.6-1.3,0.2-2.3l-2-4.4c-0.5-1-0.7-0.9-0.5,0.1l1,5.2
		C407.2,270.9,407.8,271.5,408.3,271.2"/>
	<path id="XMLID_95_" class="st2" d="M410.5,252.4c-0.2-0.4-0.8,0-1.3,1l-2.1,4.3c-0.5,1-0.3,1.1,0.3,0.2l2.3-3.1
		C410.4,253.9,410.7,252.9,410.5,252.4"/>
	<path id="XMLID_96_" class="st0" d="M377.5,231.4l0.1-2.5c0-1.1,0.3-1.1,0.6-0.1l0.7,2.9"/>
	<path id="XMLID_97_" class="st3" d="M84.9,272.3c-1-0.3-0.9-0.5,0.2-0.4c1.1,0.1,2.6,0.3,3.5,0.4c0.8,0.1,0.8,0.3-0.2,0.4
		C87.5,272.8,85.9,272.6,84.9,272.3"/>
	<path id="XMLID_98_" class="st3" d="M133.6,266.9c-0.8-0.8-0.9-0.7-0.2,0.2l0.8,1.1c0.6,0.9,1.6,1.9,2.2,2.3
		c0.6,0.4,0.6,0.1-0.1-0.7c-0.6-0.8-1.8-2-2.5-2.8L133.6,266.9z"/>
	<path id="XMLID_99_" class="st3" d="M153.3,264.7c-0.3,0-0.1,0.7,0.3,1.6c0.4,0.9,0.6,0.9,0.5,0
		C153.9,265.4,153.6,264.7,153.3,264.7"/>
	<path id="XMLID_100_" class="st3" d="M181.6,274.5c-0.8-0.1-0.7-0.3,0.4-0.5l1.2-0.2c1.1-0.2,1.5-0.1,0.9,0.3
		C183.6,274.4,182.5,274.6,181.6,274.5"/>
	<path id="XMLID_101_" class="st3" d="M201.3,266.3c-0.4-0.5-0.5-0.2-0.3,0.8c0.2,1,0.8,2.5,1.2,3.3c0.5,0.8,0.6,0.7,0.4-0.4
		l-0.2-0.8C202.2,268.2,201.7,266.9,201.3,266.3"/>
	<path id="XMLID_102_" class="st3" d="M266.6,268c-0.1-0.6-0.4-0.5-0.7,0.2c-0.3,0.8-0.5,2.2-0.5,3.2c0,1,0.3,1,0.6,0l0.1-0.4
		C266.6,270,266.7,268.6,266.6,268"/>
	<path id="XMLID_103_" class="st3" d="M244.9,263.8c-0.2-0.6-0.7-0.5-1.1,0.2c-0.4,0.8,0.1,1.8,1.1,2.3l0,0c1,0.5,1.5,0.4,1.1-0.3
		C245.6,265.5,245.1,264.4,244.9,263.8"/>
	<path id="XMLID_104_" class="st3" d="M281.3,274.8c-1-0.3-0.9-0.5,0.2-0.5h0.4c1.1,0,2.8,0.3,3.7,0.6c1,0.3,0.9,0.6-0.2,0.5l-0.4,0
		C284,275.4,282.3,275.1,281.3,274.8"/>
	<path id="XMLID_106_" class="st3" d="M306,266.3c-0.1-0.4-0.4,0-0.7,0.8c-0.3,0.8-0.2,1.1,0.2,0.7
		C305.8,267.4,306.1,266.7,306,266.3"/>
	<path id="XMLID_107_" class="st3" d="M329.7,265.5c-0.1-0.4-0.4,0-0.7,0.8c-0.3,0.8-0.2,1.1,0.2,0.7
		C329.5,266.5,329.8,265.9,329.7,265.5"/>
	<path id="XMLID_108_" class="st3" d="M325.9,272.6c-1.1-0.2-1.1-0.5,0-0.6l0.8-0.1c1.1-0.1,2.4,0.1,3,0.4c0.5,0.3,0.4,0.6-0.4,0.6
		c-0.8,0-2.3-0.2-3.3-0.4L325.9,272.6z"/>
	<path id="XMLID_112_" class="st3" d="M360.7,272.5c-1,0.1-1-0.1,0-0.4c1-0.3,2.7-0.5,3.7-0.4l1.4,0.1c1.1,0.1,1.1,0.2,0,0.3
		l-1.4,0.1C363.4,272.3,361.7,272.5,360.7,272.5"/>
	<path id="XMLID_113_" class="st2" d="M383.2,247.7c-0.5,0.2-1.3,1.2-1.7,2.2l0,0c-0.4,1-0.2,1.1,0.4,0.3l1-1.3
		C383.6,248.1,383.7,247.5,383.2,247.7"/>
	<path id="XMLID_114_" class="st0" d="M421.4,230.9c-0.5,0-0.9-0.9-1-2l-0.1-0.8c-0.1-1.1,0.2-1.2,0.6-0.2l0.5,1.2
		C421.9,230.1,421.9,230.9,421.4,230.9"/>
	<path id="XMLID_115_" class="st0" d="M276.3,235.3c0-0.5,0.8-1,1.9-0.9l0.7,0c1.1,0,1.2,0.4,0.2,0.8l-0.8,0.3
		C277.2,236,276.3,235.9,276.3,235.3"/>
	<path id="XMLID_116_" class="st0" d="M222.3,237.3c-0.4-0.2-0.7,0.5-0.5,1.6l0.1,0.9c0.1,1.1,0.5,1.1,0.7,0l0-0.1
		C222.9,238.6,222.7,237.5,222.3,237.3"/>
	<path id="XMLID_117_" class="st0" d="M174,252.3c-0.1-0.4,0.7-0.8,1.7-0.8h4.2c1.1,0,1.1,0.2,0,0.4l-3.8,0.8
		C175.1,252.9,174.1,252.7,174,252.3"/>
	<path id="XMLID_118_" class="st0" d="M88.3,260.7c0.1-0.3-0.8-0.6-1.9-0.6h-1c-1.1,0-1.1,0.2-0.1,0.5l0.9,0.2
		C87.3,261.1,88.2,261,88.3,260.7"/>
	<path id="XMLID_119_" class="st4" d="M73,264.2c-1.1,0-1.8,0.2-1.6,0.4c0.2,0.2,1.3,0.4,2.4,0.4h8c1.1,0,2.1-0.2,2.4-0.5
		c0.2-0.3-0.5-0.5-1.6-0.4L73,264.2z"/>
	<path id="XMLID_120_" class="st4" d="M109.4,264.2c-1.1,0-1.8,0.2-1.6,0.4c0.2,0.2,1.3,0.4,2.4,0.4h8c1.1,0,2.1-0.2,2.4-0.5
		c0.2-0.3-0.5-0.5-1.6-0.4L109.4,264.2z"/>
	<path id="XMLID_121_" class="st4" d="M129.9,264.1c-1.1,0-1.9,0.2-1.8,0.4c0.1,0.2,1,0.4,2.1,0.4h0.1c1.1,0,2-0.2,2.1-0.5
		c0.1-0.3-0.8-0.4-1.8-0.4L129.9,264.1z"/>
	<path id="XMLID_122_" class="st4" d="M93.4,246.2c-1.1,0-1.9,0.2-1.8,0.5c0.1,0.2,1,0.4,2.1,0.4h0.1c1.1,0,2-0.2,2.1-0.5
		c0.1-0.3-0.8-0.4-1.8-0.4L93.4,246.2z"/>
	<path id="XMLID_123_" class="st4" d="M108.4,246.2c-1.1,0-1.9,0.2-1.8,0.5c0.1,0.2,1,0.4,2.1,0.4h0.1c1.1,0,2-0.2,2.1-0.5
		c0.1-0.3-0.8-0.4-1.8-0.4L108.4,246.2z"/>
	<path id="XMLID_124_" class="st4" d="M78.3,248.6c-1.1,0-1.9,0.2-1.9,0.5c0.1,0.2,0.9,0.4,2,0.4c1,0,1.9-0.2,2-0.5
		c0.1-0.3-0.8-0.4-1.9-0.4L78.3,248.6z"/>
	<path id="XMLID_125_" class="st4" d="M96.4,254.8c-1.1,0-1.9,0.2-1.7,0.4c0.1,0.2,1.1,0.4,2.2,0.4h3.6c1.1,0,2.1-0.2,2.2-0.5
		c0.1-0.3-0.6-0.4-1.7-0.4L96.4,254.8z"/>
	<path id="XMLID_126_" class="st4" d="M88.1,228.5c-1.1,0-1.9,0.2-1.7,0.4c0.1,0.2,1.1,0.4,2.2,0.4h3.6c1.1,0,2.1-0.2,2.2-0.5
		c0.1-0.3-0.6-0.4-1.7-0.4L88.1,228.5z"/>
	<path id="XMLID_127_" class="st4" d="M150.8,264.1c-1.1,0-1.9,0.2-1.8,0.4c0.1,0.2,1,0.4,2.1,0.4h0.1c1.1,0,2-0.2,2.1-0.5
		c0.1-0.3-0.8-0.4-1.8-0.4L150.8,264.1z"/>
	<path id="XMLID_128_" class="st4" d="M186.6,264.1c-1.1,0-1.9,0.2-1.9,0.5c0.1,0.2,0.9,0.4,2,0.4c1,0,1.9-0.2,2-0.5
		c0.1-0.3-0.8-0.4-1.9-0.4L186.6,264.1z"/>
	<path id="XMLID_146_" class="st4" d="M157.5,264.1c-1.1,0-1.9,0.2-1.8,0.4c0.1,0.2,1.1,0.4,2.2,0.4h2.7c1.1,0,2.1-0.2,2.2-0.5
		c0.1-0.3-0.7-0.4-1.8-0.4L157.5,264.1z"/>
	<path id="XMLID_147_" class="st4" d="M176.5,264.1c-1.1,0-1.9,0.2-1.7,0.4c0.1,0.2,1.1,0.4,2.2,0.4h3.4c1.1,0,2.1-0.2,2.2-0.5
		c0.1-0.3-0.7-0.4-1.7-0.4L176.5,264.1z"/>
	<path id="XMLID_148_" class="st4" d="M197.5,264.1c-1.1,0-1.9,0.2-1.8,0.4c0.1,0.2,1.1,0.4,2.1,0.4h1.5c1.1,0,2-0.2,2.1-0.5
		c0.1-0.3-0.7-0.4-1.8-0.4L197.5,264.1z"/>
	<path id="XMLID_149_" class="st4" d="M239,264.1c-1.1,0-1.9,0.2-1.8,0.4c0.1,0.2,1.1,0.4,2.1,0.4h1.5c1.1,0,2.1-0.2,2.1-0.5
		c0.1-0.3-0.7-0.4-1.8-0.4L239,264.1z"/>
	<path id="XMLID_150_" class="st4" d="M268.6,264.1c-1.1,0-1.9,0.2-1.8,0.4c0.1,0.2,1,0.4,2.1,0.4h0.9c1.1,0,2-0.2,2.1-0.5
		c0.1-0.3-0.7-0.4-1.8-0.4L268.6,264.1z"/>
	<path id="XMLID_151_" class="st4" d="M283.4,264.1c-1.1,0-1.8,0.2-1.6,0.4c0.2,0.2,1.2,0.4,2.3,0.4h6.4c1.1,0,2.1-0.2,2.3-0.5
		c0.2-0.3-0.6-0.5-1.6-0.4L283.4,264.1z"/>
	<path id="XMLID_152_" class="st4" d="M301.6,264.1c-1.1,0-1.9,0.2-1.8,0.4c0.1,0.2,1,0.4,2.1,0.4h0.3c1.1,0,2-0.2,2.1-0.5
		c0.1-0.3-0.7-0.4-1.8-0.4L301.6,264.1z"/>
	<path id="XMLID_153_" class="st4" d="M308.2,264.1c-1.1,0-1.9,0.2-1.8,0.4c0.1,0.2,1.1,0.4,2.2,0.4h2.8c1.1,0,2.1-0.2,2.2-0.5
		c0.1-0.3-0.7-0.4-1.8-0.4L308.2,264.1z"/>
	<path id="XMLID_154_" class="st4" d="M322.7,264.1c-1.1,0-1.9,0.2-1.8,0.4c0.1,0.2,1.1,0.4,2.2,0.4h1.7c1.1,0,2.1-0.2,2.2-0.5
		c0.1-0.3-0.7-0.4-1.8-0.4L322.7,264.1z"/>
	<path id="XMLID_155_" class="st4" d="M331.3,264.1c-1.1,0-1.9,0.2-1.8,0.4c0.1,0.2,1,0.4,2.1,0.4h0.7c1.1,0,2-0.2,2.1-0.5
		c0.1-0.3-0.7-0.4-1.8-0.4L331.3,264.1z"/>
	<path id="XMLID_156_" class="st4" d="M343.5,264.1c-1.1,0-1.8,0.2-1.6,0.4c0.2,0.2,1.3,0.4,2.4,0.4h8.9c1.1,0,2.2-0.2,2.4-0.5
		c0.2-0.3-0.5-0.5-1.6-0.4L343.5,264.1z"/>
	<path id="XMLID_157_" class="st4" d="M364.2,264.1c-1.1,0-1.8,0.2-1.6,0.4c0.2,0.2,1.3,0.4,2.4,0.4h8.9c1.1,0,2.2-0.2,2.4-0.5
		c0.2-0.3-0.5-0.5-1.6-0.4L364.2,264.1z"/>
	<path id="XMLID_158_" class="st4" d="M416.6,264.1c-1.1,0-1.8,0.2-1.6,0.4c0.2,0.2,1.3,0.4,2.4,0.4h8.9c1.1,0,2.2-0.2,2.4-0.5
		c0.2-0.3-0.5-0.5-1.6-0.4L416.6,264.1z"/>
	<path id="XMLID_159_" class="st4" d="M397.4,229.2c-1.1,0-1.9,0.2-1.7,0.4c0.1,0.2,1.1,0.4,2.2,0.4h3.3c1.1,0,2.1-0.2,2.2-0.5
		c0.1-0.3-0.7-0.4-1.7-0.4L397.4,229.2z"/>
	<path id="XMLID_160_" class="st4" d="M381.1,229.2c-1.1,0-1.8,0.2-1.7,0.4c0.1,0.2,1.2,0.4,2.2,0.4h4.3c1.1,0,2.1-0.2,2.2-0.5
		c0.1-0.3-0.6-0.4-1.7-0.4L381.1,229.2z"/>
	<path id="XMLID_161_" class="st4" d="M372.8,229.2c-1.1,0-1.9,0.2-1.8,0.4c0.1,0.2,1.1,0.4,2.2,0.4h1.8c1.1,0,2.1-0.2,2.2-0.5
		c0.1-0.3-0.7-0.4-1.8-0.4L372.8,229.2z"/>
	<path id="XMLID_162_" class="st4" d="M375.5,246.1c-1.1,0-1.9,0.2-1.7,0.4c0.1,0.2,1.1,0.4,2.2,0.4h3.5c1.1,0,2.1-0.2,2.2-0.5
		c0.1-0.3-0.6-0.4-1.7-0.4L375.5,246.1z"/>
	<path id="XMLID_163_" class="st4" d="M325,228c-1.1,0-1.9,0.2-1.8,0.4c0.1,0.2,1.1,0.4,2.2,0.4h1.8c1.1,0,2.1-0.2,2.2-0.5
		c0.1-0.3-0.7-0.4-1.8-0.4L325,228z"/>
	<path id="XMLID_164_" class="st4" d="M336.7,228c-1.1,0-1.9,0.2-1.8,0.4c0.1,0.2,1.1,0.4,2.2,0.4h1.8c1.1,0,2.1-0.2,2.2-0.5
		c0.1-0.3-0.7-0.4-1.8-0.4L336.7,228z"/>
	<path id="XMLID_165_" class="st4" d="M329.2,235.5c-0.9,0-1.6,0.2-1.5,0.5c0.1,0.2,0.7,0.4,1.5,0.4c0.8,0,1.5-0.2,1.5-0.5
		C330.7,235.6,330.1,235.5,329.2,235.5"/>
	<path id="XMLID_166_" class="st4" d="M333.4,233.1c-1.1,0-1.9,0.2-1.9,0.5c0.1,0.2,0.9,0.4,1.9,0.4c1,0,1.8-0.2,1.9-0.5
		C335.3,233.2,334.5,233,333.4,233.1L333.4,233.1z"/>
	<path id="XMLID_167_" class="st4" d="M281.1,233.5c-1.1,0-1.9,0.2-1.9,0.5c0.1,0.2,0.9,0.4,1.9,0.4c1,0,1.8-0.2,1.9-0.5
		C283.1,233.7,282.2,233.5,281.1,233.5L281.1,233.5z"/>
	<path id="XMLID_168_" class="st4" d="M294.2,245.8c-1.1,0-1.9,0.2-1.8,0.4c0.1,0.2,1,0.4,2.1,0.4h0.3c1.1,0,2-0.2,2.1-0.5
		c0.1-0.3-0.7-0.4-1.8-0.4L294.2,245.8z"/>
	<path id="XMLID_169_" class="st4" d="M285,250.2c-1.1,0-1.9,0.2-1.8,0.4c0.1,0.2,1.1,0.4,2.2,0.4h2.7c1.1,0,2.1-0.2,2.2-0.5
		c0.1-0.3-0.7-0.4-1.8-0.4L285,250.2z"/>
	<path id="XMLID_170_" class="st4" d="M415.4,251.1c-1.1,0-1.9,0.2-1.8,0.4c0.1,0.2,1.1,0.4,2.2,0.4h2.7c1.1,0,2.1-0.2,2.2-0.5
		c0.1-0.3-0.7-0.4-1.8-0.4L415.4,251.1z"/>
	<path id="XMLID_171_" class="st4" d="M198.5,254.5c-1.1,0-1.9,0.2-1.8,0.4c0.1,0.2,1,0.4,2.1,0.4h1.1c1.1,0,2-0.2,2.1-0.5
		c0.1-0.3-0.7-0.4-1.8-0.4L198.5,254.5z"/>
	<path id="XMLID_172_" class="st4" d="M180.1,250.8c-1.1,0-1.9,0.2-1.8,0.4s1,0.4,2.1,0.4h1.1c1.1,0,2-0.2,2.1-0.5
		c0.1-0.3-0.7-0.4-1.8-0.4L180.1,250.8z"/>
	<path id="XMLID_173_" class="st4" d="M153.8,250.5c-1.1,0-1.9,0.2-1.8,0.4c0.1,0.2,1.1,0.4,2.1,0.4h1.1c1.1,0,2-0.2,2.1-0.5
		c0.1-0.3-0.7-0.4-1.8-0.4L153.8,250.5z"/>
	<path id="XMLID_174_" class="st4" d="M114.1,236.4c-1.1,0-1.9,0.2-1.8,0.4c0.1,0.2,1.1,0.4,2.2,0.4l2.9,0c1.1,0,2.1-0.2,2.2-0.5
		c0.1-0.3-0.7-0.4-1.7-0.4L114.1,236.4z"/>
	<path id="XMLID_175_" class="st4" d="M188.7,229.8c-1.1-0.1-1.9,0-1.9,0.2c0.1,0.2,1,0.5,2.1,0.7l1,0.1c1.1,0.1,2.1,0.1,2.2-0.2
		c0.1-0.2-0.7-0.5-1.7-0.6L188.7,229.8z"/>
	<path id="XMLID_176_" class="st4" d="M301.7,253c-1.1,0-1.9,0.2-1.8,0.4c0.1,0.2,1,0.4,2.1,0.4h1.1c1.1,0,2-0.2,2.1-0.5
		c0.1-0.3-0.7-0.4-1.8-0.4L301.7,253z"/>
	<path id="XMLID_177_" class="st4" d="M334.9,249.8c-1.1,0-1.9,0.2-1.8,0.4c0.1,0.2,1,0.4,2.1,0.4h1.1c1.1,0,2-0.2,2.1-0.5
		c0.1-0.3-0.7-0.4-1.8-0.4L334.9,249.8z"/>
	<path id="XMLID_178_" class="st4" d="M255.2,228.9c-1.1,0-1.7,0.2-1.5,0.4c0.3,0.2,1.4,0.4,2.5,0.4h11.7c1.1,0,2.2-0.2,2.5-0.5
		c0.3-0.3-0.4-0.5-1.5-0.4L255.2,228.9z"/>
	<path id="XMLID_179_" class="st4" d="M215.7,229c-1.1,0-1.7,0.2-1.5,0.4c0.3,0.2,1.4,0.4,2.5,0.4h12.2c1.1,0,2.2-0.2,2.5-0.5
		c0.3-0.3-0.4-0.5-1.5-0.4L215.7,229z"/>
	<path id="XMLID_180_" class="st4" d="M213.6,245.8c-1.1,0-1.8,0.2-1.7,0.4c0.2,0.2,1.2,0.4,2.3,0.4h4.8c1.1,0,2.1-0.2,2.3-0.5
		c0.2-0.3-0.6-0.4-1.7-0.4L213.6,245.8z"/>
	<path id="XMLID_181_" class="st4" d="M224.2,245.8c-1.1,0-1.9,0.2-1.7,0.4c0.1,0.2,1.2,0.4,2.2,0.4h4.3c1.1,0,2.1-0.2,2.2-0.5
		c0.1-0.3-0.6-0.4-1.7-0.4L224.2,245.8z"/>
	<path id="XMLID_182_" class="st4" d="M246.9,261.9c-1.1,0-1.9,0.2-1.8,0.5c0.1,0.2,1,0.4,2.1,0.4h0c1.1,0,2-0.2,2.1-0.5
		c0.1-0.3-0.8-0.4-1.8-0.4L246.9,261.9z"/>
	<path id="XMLID_183_" class="st4" d="M243.8,234.9c-1.1-0.1-1.9,0-1.8,0.2c0.1,0.2,1,0.5,2.1,0.7l2,0.3c1.1,0.1,2.1,0.1,2.2-0.2
		c0.1-0.2-0.6-0.5-1.7-0.7L243.8,234.9z"/>
	<path id="XMLID_184_" class="st4" d="M342.8,253.1c-1.1-0.1-1.9,0-1.8,0.2c0.1,0.2,1,0.5,2.1,0.7l2,0.3c1.1,0.1,2.1,0.1,2.2-0.2
		c0.1-0.2-0.6-0.5-1.7-0.7L342.8,253.1z"/>
	<path id="XMLID_185_" class="st4" d="M339.2,235.5c-0.8,0-1.4,0.2-1.4,0.5c0,0.2,0.7,0.4,1.4,0.4c0.7,0,1.3-0.2,1.4-0.5
		C340.7,235.6,340,235.5,339.2,235.5"/>
	<path id="XMLID_186_" class="st4" d="M386,246.1c-1.1,0-1.9,0.2-1.7,0.4c0.1,0.2,1.2,0.4,2.2,0.4h4.3c1.1,0,2.1-0.2,2.2-0.5
		c0.1-0.3-0.6-0.4-1.7-0.4L386,246.1z"/>
	<path id="XMLID_187_" class="st4" d="M424,229.2c-1.1,0-1.9,0.2-1.8,0.4c0.1,0.2,1.1,0.4,2.2,0.4h2c1.1,0,2.1-0.2,2.2-0.5
		c0.1-0.3-0.7-0.4-1.8-0.4L424,229.2z"/>
	<path id="XMLID_188_" class="st4" d="M253.6,264.1c-1.1,0-1.8,0.2-1.6,0.4c0.2,0.2,1.3,0.4,2.3,0.4h7.4c1.1,0,2.1-0.2,2.3-0.5
		c0.2-0.3-0.5-0.5-1.6-0.4L253.6,264.1z"/>
	<path id="XMLID_189_" class="st4" d="M205.2,264.1c-1.1,0-1.8,0.2-1.5,0.4c0.3,0.2,1.4,0.4,2.4,0.4h11c1.1,0,2.2-0.2,2.5-0.5
		c0.3-0.3-0.4-0.5-1.5-0.4L205.2,264.1z"/>
	<path id="XMLID_190_" class="st4" d="M223.2,264.1c-1.1,0-1.9,0.2-1.7,0.4c0.1,0.2,1.1,0.4,2.2,0.4h4.2c1.1,0,2.1-0.2,2.2-0.5
		c0.1-0.3-0.6-0.4-1.7-0.4L223.2,264.1z"/>
	<path id="XMLID_191_" class="st4" d="M137.7,264.2c-1.1,0-1.9,0.2-1.8,0.4c0.1,0.2,1.1,0.4,2.2,0.4h1.8c1.1,0,2.1-0.2,2.2-0.5
		c0.1-0.3-0.7-0.4-1.8-0.4L137.7,264.2z"/>
</g>
</svg>
