<?xml version="1.0" standalone="no"?>
<!DOCTYPE svg PUBLIC "-//W3C//DTD SVG 20010904//EN"
 "http://www.w3.org/TR/2001/REC-SVG-20010904/DTD/svg10.dtd">
<svg version="1.0" xmlns="http://www.w3.org/2000/svg"
 width="269.000000pt" height="384.000000pt" viewBox="0 0 269.000000 384.000000"
 preserveAspectRatio="xMidYMid meet">
<metadata>
Created by potrace 1.16, written by Peter Selinger 2001-2019
</metadata>
<g transform="translate(0.000000,384.000000) scale(0.100000,-0.100000)"
fill="#000000" stroke="none">
<path d="M1861 3814 c-66 -29 -142 -106 -167 -168 -10 -25 -22 -46 -25 -46 -4
0 -9 14 -13 32 l-6 31 -23 -21 c-32 -30 -36 -28 -30 16 4 28 0 43 -16 62 l-20
25 -1 -26 c0 -40 -27 -56 -102 -61 -38 -2 -68 -1 -68 2 1 3 14 21 30 40 41 48
24 58 -44 27 -57 -26 -109 -61 -158 -106 l-28 -24 -21 26 c-11 15 -30 32 -42
39 -15 8 -10 -2 16 -31 21 -23 35 -46 32 -51 -11 -17 -23 -11 -42 20 -31 53
-33 32 -3 -26 22 -40 28 -63 23 -82 -6 -26 -5 -26 37 11 64 54 71 45 10 -10
-91 -82 -85 -81 -120 -24 -43 69 -130 137 -130 101 0 -5 6 -10 13 -10 16 0 52
-38 99 -106 34 -48 35 -53 22 -73 -9 -12 -16 -31 -18 -44 -2 -12 -8 -36 -15
-53 -12 -32 -12 -32 -44 -16 -18 8 -57 36 -87 62 -77 65 -141 102 -160 90 -14
-9 -7 -14 14 -11 4 1 23 -10 41 -24 19 -14 37 -25 40 -25 4 0 31 -22 61 -49
30 -27 69 -54 87 -60 29 -10 33 -15 34 -51 1 -21 9 -52 17 -68 23 -44 184
-230 251 -289 31 -28 79 -76 107 -107 l50 -56 -79 35 c-102 47 -163 89 -245
172 -74 75 -103 137 -115 246 -3 31 -10 57 -14 57 -14 0 -31 -80 -23 -113 3
-18 13 -44 20 -59 8 -15 14 -40 14 -56 0 -32 46 -152 81 -211 12 -20 36 -48
53 -63 l31 -27 -25 -1 c-80 -1 -241 124 -290 225 -46 95 -36 169 35 253 14 17
21 33 16 36 -10 7 -64 -51 -85 -92 -25 -48 -46 -190 -46 -309 0 -100 3 -120
21 -150 12 -19 23 -33 24 -31 2 2 -1 23 -5 48 -11 56 -13 210 -2 210 4 0 36
-25 72 -56 140 -118 219 -160 281 -147 l28 5 -43 57 c-37 47 -59 90 -104 201
-3 8 29 -18 72 -58 109 -103 164 -136 324 -196 61 -23 65 -21 58 19 l-7 36 43
-22 c36 -19 59 -22 141 -22 54 0 103 5 108 10 8 8 -3 21 -35 42 -25 18 -46 34
-46 36 0 6 121 -43 136 -55 7 -7 18 -28 25 -47 11 -36 10 -60 -11 -213 -6 -41
-12 -102 -14 -135 -3 -33 -6 -64 -7 -70 -5 -17 32 -115 42 -110 5 4 6 -8 3
-27 -4 -23 -3 -29 4 -19 7 9 9 0 6 -30 -2 -24 -6 -87 -8 -139 -6 -111 -27
-190 -95 -362 -54 -134 -115 -331 -109 -349 2 -6 21 33 42 87 52 135 181 390
200 397 32 12 39 -30 32 -184 -3 -81 -11 -171 -16 -201 -5 -29 -11 -69 -13
-88 -11 -85 -114 -360 -211 -562 -62 -130 -53 -122 -216 -180 l-95 -33 -235 3
c-156 2 -232 0 -225 -7 6 -5 21 -11 35 -14 14 -2 7 -3 -15 -1 -44 3 -120 41
-150 74 -26 28 -48 140 -63 321 -5 52 -12 100 -16 107 -3 6 -20 69 -36 139
-26 113 -79 286 -108 347 -5 11 -16 40 -23 64 -7 24 -21 48 -31 53 -10 5 -18
16 -18 24 0 8 -12 35 -26 60 -79 142 -95 263 -68 515 6 55 -21 220 -36 220
-15 0 -40 131 -44 239 -6 124 2 154 58 237 24 36 26 37 26 14 0 -48 16 -54 39
-16 13 20 27 36 31 36 5 0 22 -19 39 -43 36 -53 135 -145 182 -170 l34 -18
-30 22 c-61 45 -171 165 -193 209 -12 25 -22 40 -22 34 0 -5 -14 -21 -31 -33
l-32 -24 7 39 c4 21 14 51 23 67 8 17 11 33 6 38 -12 12 -70 -66 -121 -160
l-40 -74 -16 31 c-9 17 -16 54 -16 83 0 58 33 123 99 193 26 29 29 34 9 19
-14 -11 -39 -34 -53 -51 -15 -18 -31 -32 -37 -32 -6 0 -28 -16 -50 -36 -22
-19 -42 -33 -45 -31 -2 3 11 37 30 75 32 64 56 103 104 172 17 24 17 25 -1 10
-11 -8 -34 -37 -52 -65 -19 -27 -49 -68 -68 -90 l-35 -39 6 44 c2 25 11 59 19
77 8 17 14 35 14 40 0 20 52 57 97 69 34 9 40 13 22 13 -42 1 -99 -27 -117
-59 -13 -24 -24 -30 -49 -30 -50 0 -51 -1 63 123 24 26 73 65 109 87 72 44 85
49 64 23 -13 -15 -11 -15 19 1 17 9 33 21 34 26 0 6 1 15 2 21 1 6 -19 20 -44
30 l-45 18 51 0 c40 1 55 6 71 25 16 18 35 25 84 31 54 6 61 9 45 19 -11 6
-33 23 -50 38 l-31 27 50 -15 c42 -12 95 -21 141 -23 7 -1 39 -27 71 -58 65
-63 148 -133 157 -133 19 0 -2 25 -61 71 -38 29 -81 67 -98 85 -16 17 -56 46
-87 65 -32 18 -58 37 -58 41 0 5 -6 8 -12 8 -7 0 0 -12 16 -26 15 -14 26 -28
22 -31 -3 -3 -35 2 -70 11 -80 22 -94 19 -67 -16 26 -33 26 -38 1 -38 -11 0
-20 5 -20 10 0 6 -12 10 -26 10 -16 0 -46 17 -77 43 -67 56 -156 97 -210 97
-91 0 -159 -39 -174 -98 -8 -32 22 -121 58 -176 15 -23 53 -66 83 -96 30 -30
52 -57 48 -60 -23 -17 -102 -121 -102 -134 0 -12 10 -16 35 -16 24 0 35 -5 35
-14 0 -8 -4 -16 -8 -18 -5 -1 -12 -29 -16 -62 l-6 -58 26 6 c25 7 25 6 10 -16
-20 -28 -21 -68 -1 -68 8 0 30 14 50 31 19 17 35 26 35 21 0 -6 -4 -14 -10
-17 -5 -3 -10 -36 -10 -73 0 -52 6 -76 24 -109 20 -35 25 -61 31 -170 7 -127
15 -173 40 -224 8 -16 9 -32 4 -40 -18 -28 -10 -124 14 -171 18 -36 21 -51 14
-79 -14 -52 -1 -285 18 -312 8 -12 15 -31 15 -42 0 -12 16 -52 35 -89 19 -38
35 -74 35 -80 0 -6 9 -17 20 -23 10 -7 24 -32 31 -55 6 -24 16 -53 21 -64 34
-74 118 -346 118 -385 0 -9 9 -45 20 -79 11 -34 20 -85 20 -113 0 -54 13 -141
37 -254 13 -61 20 -76 48 -98 19 -14 38 -25 44 -25 5 0 17 -7 25 -15 17 -18
141 -35 249 -35 47 0 67 -4 67 -12 0 -7 15 -23 33 -36 27 -18 37 -35 51 -85
18 -64 40 -107 55 -107 5 0 -2 27 -16 61 -31 78 -29 92 14 74 24 -10 34 -23
42 -51 13 -48 96 -134 129 -134 15 0 26 7 29 20 3 11 9 20 13 20 22 0 40 -14
40 -31 0 -16 8 -19 47 -19 52 0 231 55 328 100 86 40 217 131 232 160 43 85
55 121 49 157 -3 21 -10 103 -16 183 -6 80 -19 244 -30 365 -34 394 -41 498
-32 507 5 5 21 4 37 -2 32 -12 78 -5 112 17 38 25 90 115 137 238 26 66 52
129 58 140 18 30 23 248 7 315 -13 53 -101 229 -141 280 -11 14 -29 30 -41 37
-17 9 -18 12 -6 13 15 0 15 4 3 38 -17 49 -19 121 -2 104 7 -7 15 -12 19 -12
10 0 -100 240 -128 278 l-24 32 31 0 c28 0 30 2 28 33 -3 63 -94 208 -139 222
-27 9 -24 33 11 85 16 25 30 50 30 56 0 6 12 32 26 58 29 52 28 91 -4 194 -14
46 -22 57 -57 75 -47 25 -193 77 -215 76 -8 0 -39 -11 -69 -25z m108 5 c63
-20 115 -40 157 -61 49 -23 73 -71 81 -163 5 -59 4 -63 -45 -145 -27 -47 -59
-93 -69 -102 -19 -17 -113 -41 -123 -32 -7 8 101 102 138 120 62 31 96 114 67
164 -8 14 -14 21 -15 17 0 -5 -18 7 -41 27 -88 75 -154 86 -240 42 -87 -45
-82 -35 -75 -176 l7 -126 -49 -12 c-72 -19 -109 4 -45 29 32 12 20 29 -20 29
-61 0 -65 10 -37 92 54 164 99 227 200 278 64 34 63 33 109 19z m-1666 -145
c33 -18 89 -57 119 -84 9 -8 24 -21 33 -28 19 -16 19 -46 0 -62 -8 -7 -35 -15
-59 -17 -41 -5 -44 -4 -50 23 -16 65 -62 101 -139 110 -22 3 -44 7 -49 10 -4
3 -16 -4 -27 -15 -17 -17 -19 -28 -14 -73 3 -28 12 -63 20 -77 7 -15 13 -30
13 -34 0 -14 92 -106 111 -112 21 -7 26 -25 8 -25 -18 0 -110 99 -145 157 -17
29 -37 72 -44 97 -11 41 -10 48 10 80 12 20 22 36 23 36 1 0 20 7 42 15 54 19
109 19 148 -1z m1742 -6 c11 -6 41 -24 68 -41 42 -27 47 -34 47 -67 0 -33 -8
-43 -97 -120 -53 -47 -122 -99 -154 -116 l-57 -31 -6 81 c-3 45 -9 122 -12
171 l-6 90 53 27 c44 22 62 27 99 22 25 -3 54 -11 65 -16z m-751 -40 c-63 -68
-124 -114 -124 -93 0 12 154 145 169 145 2 0 -18 -24 -45 -52z m162 -34 c-4
-15 -2 -24 5 -24 8 0 8 -4 0 -14 -13 -16 2 -32 19 -21 6 3 10 4 10 0 0 -3 -12
-10 -27 -16 -34 -13 -176 -18 -164 -6 5 5 37 23 72 41 71 36 85 55 42 57 l-28
1 30 7 c39 10 48 4 41 -25z m-1238 0 c12 -8 27 -12 34 -8 7 5 8 3 3 -6 -6 -10
-4 -12 9 -7 10 4 15 3 11 -3 -3 -6 1 -10 10 -10 25 0 45 -62 45 -139 0 -86 -6
-101 -36 -101 -31 0 -105 67 -129 117 -10 21 -22 46 -26 55 -10 20 -11 63 -3
96 8 27 48 30 82 6z m1328 -12 c-17 -16 -18 -16 -5 5 7 12 15 20 18 17 3 -2
-3 -12 -13 -22z m70 -79 c-9 -26 -16 -55 -16 -65 0 -15 -8 -18 -43 -18 -45 0
-155 18 -171 27 -20 13 131 73 182 73 12 0 22 5 22 10 0 6 -5 10 -12 10 -6 0
1 14 18 31 l29 31 3 -27 c2 -14 -4 -47 -12 -72z m-265 -34 c-40 -16 -153 -37
-142 -26 13 13 99 36 136 36 29 0 29 -1 6 -10z m-963 -37 l23 -18 -31 -29 -30
-29 0 47 c0 52 4 55 38 29z m973 -19 c28 -5 30 -7 14 -14 -11 -4 -34 -8 -52
-8 -17 -1 -35 -5 -38 -11 -3 -5 -17 -10 -29 -10 -13 0 -50 -13 -82 -30 -70
-35 -64 -34 -64 -15 0 9 7 18 15 21 8 4 15 12 15 18 0 20 49 39 115 46 33 4
63 8 66 8 4 1 21 -1 40 -5z m179 -41 c25 -8 65 -25 90 -37 30 -15 57 -22 80
-19 22 3 31 1 24 -6 -17 -17 -198 -14 -256 5 -99 33 -97 31 -65 44 15 6 27 17
27 26 0 17 17 15 100 -13z m103 8 c-5 -20 -23 -26 -36 -13 -9 8 12 33 28 33 8
0 11 -8 8 -20z m-303 -36 c-25 -14 -56 -38 -70 -54 -40 -45 -190 -85 -190 -50
0 35 198 128 275 129 29 1 29 0 -15 -25z m52 -68 c52 -19 195 -117 248 -171
54 -55 46 -58 -20 -6 -96 76 -251 151 -314 151 l-31 0 25 20 c29 23 42 24 92
6z m492 -10 c-3 -8 -24 -26 -47 -41 l-42 -26 42 40 c45 44 56 50 47 27z m-185
-21 c-10 -10 -22 -13 -34 -9 -18 7 -18 8 1 15 10 4 26 8 34 8 12 1 12 -1 -1
-14z m-260 -75 c34 -16 61 -32 61 -34 0 -6 -153 64 -165 76 -14 13 32 -5 104
-42z m316 40 c4 -6 -6 -10 -22 -9 -25 0 -26 1 -8 9 11 5 21 9 22 9 1 1 5 -3 8
-9z m-605 -30 c22 -17 49 -47 61 -68 13 -20 35 -53 49 -72 15 -19 36 -48 46
-65 l19 -30 -35 21 c-34 21 -200 215 -200 234 0 18 21 11 60 -20z m710 26 c0
-3 -4 -8 -10 -11 -5 -3 -10 -1 -10 4 0 6 5 11 10 11 6 0 10 -2 10 -4z m-68
-76 c2 -6 32 -17 67 -26 70 -16 113 -38 150 -78 31 -33 13 -33 -35 -1 -42 29
-54 31 -54 10 0 -13 -5 -12 -37 2 -21 10 -54 31 -74 48 -19 16 -44 35 -55 42
-18 11 -17 12 8 12 14 1 28 -4 30 -9z m229 -22 c16 -12 29 -29 29 -37 0 -10
-8 -7 -27 11 -16 14 -41 33 -58 42 l-30 17 29 -6 c15 -3 41 -16 57 -27z m-646
-43 c76 -44 132 -103 165 -173 18 -37 43 -79 57 -94 41 -43 22 -49 -37 -10
-83 54 -200 177 -239 251 -33 62 -33 63 -10 56 13 -4 42 -17 64 -30z m310
-165 c52 -46 92 -86 90 -88 -2 -3 -30 10 -61 29 -62 37 -144 111 -163 148 -12
22 -12 22 14 9 14 -8 68 -52 120 -98z m-15 95 c14 -16 10 -18 -14 -9 -9 3 -16
10 -16 15 0 14 16 11 30 -6z m167 -68 c20 -19 34 -39 32 -46 -3 -7 -23 8 -49
34 -51 52 -38 62 17 12z m423 -582 c-6 -15 -13 -89 -17 -164 -4 -108 -2 -154
12 -221 18 -91 45 -162 73 -194 17 -19 17 -19 -17 0 -83 47 -101 105 -102 334
-1 118 10 188 38 247 18 40 28 38 13 -2z m250 -25 c0 -6 -7 -13 -16 -17 -13
-5 -14 -18 -9 -82 14 -182 17 -203 27 -193 6 6 9 61 7 141 -3 109 -2 125 8 98
6 -17 12 -83 12 -144 1 -113 1 -113 -24 -119 -14 -4 -28 -4 -31 -1 -3 2 -11
71 -19 153 -15 155 -12 174 26 174 11 0 19 -5 19 -10z m-142 -27 c5 -10 12
-84 16 -164 l6 -146 -27 -12 c-16 -8 -30 -8 -36 -2 -12 12 0 31 19 31 12 0 14
14 12 73 -3 66 -5 72 -25 72 -33 0 -38 13 -9 26 23 11 26 18 26 62 l0 50 -30
-6 c-33 -7 -40 6 -12 22 26 16 50 13 60 -6z m-441 -415 c-2 -24 -4 -5 -4 42 0
47 2 66 4 43 2 -24 2 -62 0 -85z m-774 -1475 c-18 -2 -48 -2 -65 0 -18 2 -4 4
32 4 36 0 50 -2 33 -4z m479 -78 c13 -29 -1 -69 -40 -113 -21 -23 -32 -28 -48
-22 -26 10 -64 73 -64 105 0 21 8 25 63 38 34 9 65 16 70 16 4 1 12 -10 19
-24z"/>
<path d="M495 2593 c-38 -4 -75 -26 -75 -45 0 -4 27 -8 59 -8 122 0 311 -33
311 -55 0 -7 7 -18 15 -25 22 -18 78 -119 92 -165 21 -68 16 -127 -16 -192
-50 -99 -58 -118 -80 -209 -12 -49 -26 -97 -31 -106 -13 -23 -40 -198 -40
-256 0 -39 -4 -49 -22 -57 -18 -8 -24 -19 -26 -55 -3 -54 1 -58 137 -107 138
-50 161 -55 162 -34 0 9 7 2 17 -17 24 -48 52 -51 114 -9 29 19 72 44 95 56
23 11 47 30 53 40 13 25 13 98 0 106 -5 3 -10 -2 -10 -12 0 -11 -6 -27 -13
-38 -13 -16 -14 -14 -20 24 -3 23 -18 61 -33 84 -16 23 -27 45 -26 49 1 4 -9
24 -23 44 -21 31 -25 49 -27 123 -1 47 -1 104 0 126 l2 40 -17 -50 c-17 -53
-23 -176 -10 -235 5 -23 16 -40 36 -51 46 -27 81 -81 88 -138 5 -46 4 -51 -13
-51 -10 0 -28 7 -38 15 -31 24 -61 18 -151 -30 -69 -36 -91 -43 -117 -38 -42
8 -128 45 -128 56 0 5 -7 16 -16 24 -12 13 -14 30 -9 92 8 102 34 270 44 290
5 9 18 57 31 106 12 50 43 132 67 184 43 90 45 98 39 160 -8 96 -10 107 -29
125 -9 10 -17 24 -17 32 0 8 -4 14 -9 14 -5 0 -11 8 -15 18 -3 9 -17 33 -31
52 -13 19 -31 45 -40 57 -31 45 -174 78 -280 66z m245 -1208 c18 -22 5 -31
-25 -17 -21 10 -25 19 -25 51 0 50 23 61 31 15 3 -18 12 -40 19 -49z"/>
<path d="M1445 2576 c-97 -18 -204 -81 -179 -106 7 -7 30 0 65 17 51 27 61 28
184 27 96 -1 140 -5 169 -18 49 -20 56 -20 56 2 -1 37 -34 59 -117 76 -91 18
-84 18 -178 2z"/>
<path d="M1432 2409 c-72 -12 -126 -42 -151 -82 -25 -40 -26 -47 -7 -47 7 0
35 -9 61 -21 31 -14 76 -22 138 -26 86 -5 95 -3 137 21 25 15 57 32 73 38 15
7 27 15 27 18 -1 10 -26 36 -67 68 -47 37 -119 48 -211 31z m36 -41 c-7 -19
-38 -22 -38 -4 0 10 9 16 21 16 12 0 19 -5 17 -12z m198 -39 c9 -16 -34 -57
-74 -70 -51 -17 -218 -7 -264 16 -21 10 -38 22 -38 25 0 12 45 49 72 59 24 9
27 8 33 -18 14 -64 85 -95 144 -64 37 19 46 32 56 76 l6 28 29 -21 c16 -12 32
-26 36 -31z m-146 31 c0 -5 -4 -10 -10 -10 -5 0 -10 5 -10 10 0 6 5 10 10 10
6 0 10 -4 10 -10z"/>
<path d="M635 2403 c-64 -6 -103 -23 -129 -57 -14 -19 -26 -41 -26 -48 0 -8
32 -22 81 -36 93 -27 139 -24 194 14 20 13 42 24 50 24 25 0 17 24 -17 57 -34
32 -96 51 -153 46z m-15 -53 c0 -5 -4 -10 -10 -10 -5 0 -10 5 -10 10 0 6 5 10
10 10 6 0 10 -4 10 -10z m162 -6 c34 -18 34 -19 -37 -56 -51 -27 -152 -28
-209 -4 l-39 18 26 25 25 26 35 -36 c23 -25 43 -37 61 -37 29 0 76 40 76 65 0
19 23 19 62 -1z"/>
<path d="M793 2204 c-13 -14 -36 -27 -53 -30 -16 -4 -30 -10 -30 -14 0 -15 72
8 96 31 24 22 31 40 17 38 -5 -1 -18 -12 -30 -25z"/>
<path d="M1260 2209 c0 -23 14 -37 44 -49 16 -6 30 -9 31 -8 1 2 -16 18 -37
37 -22 19 -38 28 -38 20z"/>
<path d="M915 1114 c-27 -8 -62 -17 -77 -20 -29 -7 -39 -24 -14 -24 7 0 33 7
57 16 32 11 62 14 111 9 42 -4 82 -2 108 6 34 10 57 10 138 -5 157 -27 152
-27 152 -11 0 10 -11 15 -32 15 -18 0 -69 7 -113 15 -55 11 -98 13 -135 8 -61
-8 -61 -8 -110 -1 -19 3 -57 -1 -85 -8z"/>
<path d="M964 928 c-10 -16 7 -26 70 -43 66 -18 106 -17 161 5 28 11 28 13 10
21 -28 12 -235 26 -241 17z"/>
<path d="M470 891 c-14 -27 -13 -37 7 -57 14 -13 15 -18 5 -22 -22 -7 -53 -46
-50 -62 4 -20 42 -25 57 -7 6 8 18 39 26 68 12 47 12 57 -1 77 -18 27 -30 28
-44 3z"/>
</g>
</svg>
